<svg xmlns="http://www.w3.org/2000/svg" viewBox="0 0 1200 675" width="1200" height="675">
<rect width="1200" height="675" fill="#121821"/>
<g stroke="#ffb000" stroke-opacity=".12" stroke-width="1"><path d="M0 0V675"/><path d="M50 0V675"/><path d="M100 0V675"/><path d="M150 0V675"/><path d="M200 0V675"/><path d="M250 0V675"/><path d="M300 0V675"/><path d="M350 0V675"/><path d="M400 0V675"/><path d="M450 0V675"/><path d="M500 0V675"/><path d="M550 0V675"/><path d="M600 0V675"/><path d="M650 0V675"/><path d="M700 0V675"/><path d="M750 0V675"/><path d="M800 0V675"/><path d="M850 0V675"/><path d="M900 0V675"/><path d="M950 0V675"/><path d="M1000 0V675"/><path d="M1050 0V675"/><path d="M1100 0V675"/><path d="M1150 0V675"/><path d="M0 0H1200"/><path d="M0 50H1200"/><path d="M0 100H1200"/><path d="M0 150H1200"/><path d="M0 200H1200"/><path d="M0 250H1200"/><path d="M0 300H1200"/><path d="M0 350H1200"/><path d="M0 400H1200"/><path d="M0 450H1200"/><path d="M0 500H1200"/><path d="M0 550H1200"/><path d="M0 600H1200"/><path d="M0 650H1200"/></g>
<circle cx="600" cy="337" r="160" fill="none" stroke="#ffb000" stroke-opacity=".35"/>
<circle cx="600" cy="337" r="90" fill="none" stroke="#ffb000" stroke-opacity=".25"/>
<path d="M440 337H760M600 177V497" stroke="#ffb000" stroke-opacity=".3"/>
<text x="600" y="590" text-anchor="middle" font-family="monospace" font-size="38" letter-spacing="6" fill="#ffb000">SHORTEST FLIGHT PATH</text>
<text x="40" y="52" font-family="monospace" font-size="20" fill="#e6e9ee" fill-opacity=".5">PLACEHOLDER · REPLACE cover.svg</text>
</svg>